<svg width="100" height="100" viewBox="0 0 100 100" fill="none" xmlns="http://www.w3.org/2000/svg">
<circle cx="50" cy="50" r="50" fill="white"/>
<path d="M37.32 25.72C37.8267 25.72 38.28 25.7333 38.68 25.76L39.76 53.76C39.3067 53.84 38.8133 53.8933 38.28 53.92C37.7733 53.9467 37.2667 53.96 36.76 53.96C36.28 53.96 35.8 53.96 35.32 53.96C34.8667 53.96 34.48 53.9733 34.16 54H34.12C33.9867 53.12 33.8933 52.2133 33.84 51.28C33.8133 50.32 33.7867 49.3733 33.76 48.44C33.76 47.5067 33.7467 46.5733 33.72 45.64C33.6933 44.7067 33.6267 43.8133 33.52 42.96L33.48 42.92C32.7067 42.7867 31.9333 42.72 31.16 42.72C30.3867 42.72 29.6133 42.8133 28.84 43C28.76 43.9333 28.72 44.8533 28.72 45.76C28.7467 46.6667 28.7733 47.5733 28.8 48.48C28.8267 49.3867 28.8267 50.28 28.8 51.16C28.8 52.0133 28.7333 52.8667 28.6 53.72C28.28 53.9067 27.8533 54 27.32 54C26.7867 54 26.2533 53.9733 25.72 53.92C25.1867 53.8667 24.68 53.8267 24.2 53.8C23.7467 53.7733 23.4 53.8267 23.16 53.96C23.1067 53.2133 23.04 52.2 22.96 50.92C22.9067 49.6133 22.8533 48.16 22.8 46.56C22.7467 44.9333 22.6933 43.2133 22.64 41.4C22.6133 39.5867 22.5867 37.7733 22.56 35.96C22.5333 34.12 22.52 32.36 22.52 30.68C22.5467 28.9733 22.5733 27.44 22.6 26.08V26.04H22.64H22.72C23.12 26.12 23.5333 26.1467 23.96 26.12C24.4133 26.0933 24.8533 26.0667 25.28 26.04C25.7333 26.0133 26.1733 26 26.6 26C27.0267 26 27.4267 26.0533 27.8 26.16C28.04 28 28.16 29.7867 28.16 31.52C28.16 33.2533 28.32 34.9733 28.64 36.68H28.68C29.3467 36.84 30.0667 36.8933 30.84 36.84C31.6133 36.76 32.3333 36.6933 33 36.64H33.04C33.2 34.8 33.28 33.08 33.28 31.48C33.3067 29.88 33.28 28.12 33.2 26.2C33.52 26.0933 33.9067 26 34.36 25.92C34.84 25.84 35.3333 25.7867 35.84 25.76C36.3467 25.7067 36.84 25.6933 37.32 25.72ZM56.8009 27.68C57.5743 28.3733 58.1209 29.1867 58.4409 30.12C58.6276 30.52 58.7609 30.9333 58.8409 31.36C58.9476 31.76 59.0276 32.1733 59.0809 32.6C59.1343 33.2667 59.1609 33.9333 59.1609 34.6C59.1876 35.24 59.1876 35.8933 59.1609 36.56C59.0809 37.9733 59.0543 39.3467 59.0809 40.68C59.1076 42.0133 59.0676 43.3733 58.9609 44.76L58.8409 46.08C58.7876 47.0133 58.6409 47.96 58.4009 48.92C58.1609 49.8533 57.8009 50.7067 57.3209 51.48C56.8676 52.12 56.2676 52.64 55.5209 53.04C54.8009 53.4133 54.0276 53.7067 53.2009 53.92C52.4543 54.1333 51.6943 54.2667 50.9209 54.32C50.1743 54.3733 49.4143 54.3733 48.6409 54.32C48.0809 54.2667 47.5343 54.1867 47.0009 54.08C46.4943 54 46.0009 53.8533 45.5209 53.64C45.0676 53.4267 44.6543 53.16 44.2809 52.84C43.9076 52.4933 43.6009 52.0533 43.3609 51.52C42.9876 50.8533 42.7343 50.1467 42.6009 49.4C42.4943 48.6267 42.4276 47.8533 42.4009 47.08C42.3209 45 42.2276 42.92 42.1209 40.84C42.0409 38.7333 42.0676 36.6267 42.2009 34.52C42.2276 33.32 42.3743 32.12 42.6409 30.92C42.9343 29.6933 43.4943 28.6133 44.3209 27.68C44.5876 27.4133 44.8943 27.1733 45.2409 26.96C46.1209 26.5333 47.0676 26.2267 48.0809 26.04C49.1209 25.8267 50.1476 25.7467 51.1609 25.8C52.2009 25.8533 53.2009 26.04 54.1609 26.36C55.1476 26.6533 56.0276 27.0933 56.8009 27.68ZM54.1609 41.8V39.88L54.0809 37.16C54.0809 37.1333 54.0543 36.8667 54.0009 36.36C53.9743 35.8267 53.9476 35.3333 53.9209 34.88C53.8676 34.1333 53.6543 33.4533 53.2809 32.84C52.9343 32.2267 52.4543 31.7733 51.8409 31.48C51.3076 31.2667 50.7609 31.2267 50.2009 31.36C49.6409 31.4933 49.1476 31.72 48.7209 32.04C47.7876 32.76 47.1609 33.68 46.8409 34.8C46.6276 35.8133 46.4943 36.88 46.4409 38C46.4143 39.12 46.4276 40.24 46.4809 41.36C46.6143 42.2933 46.7076 43.2533 46.7609 44.24C46.8143 45.2 46.9743 46.12 47.2409 47C47.5076 47.5333 47.8943 47.9467 48.4009 48.24C48.9076 48.5333 49.4543 48.7067 50.0409 48.76C50.6276 48.7867 51.2143 48.7067 51.8009 48.52C52.3876 48.3067 52.8809 47.9733 53.2809 47.52C53.5209 47.2 53.6943 46.9467 53.8009 46.76C53.9076 46.5467 53.9743 46.32 54.0009 46.08C54.0276 45.84 54.0276 45.56 54.0009 45.24C54.0009 44.8933 54.0276 44.44 54.0809 43.88C54.1076 43.3467 54.1209 42.88 54.1209 42.48C54.1476 42.08 54.1609 41.8533 54.1609 41.8ZM49.2809 23.68H49.2009L45.3209 23.64H45.2009C45.1476 23.3733 45.1076 23.0533 45.0809 22.68C45.0809 22.28 45.0809 21.88 45.0809 21.48C45.1076 21.08 45.1209 20.7067 45.1209 20.36C45.1476 20.0133 45.1609 19.76 45.1609 19.6C45.4009 19.52 45.7209 19.4533 46.1209 19.4C46.5476 19.3467 46.9743 19.32 47.4009 19.32C47.8543 19.32 48.2676 19.3467 48.6409 19.4C49.0409 19.4267 49.3343 19.48 49.5209 19.56C49.5209 19.5867 49.5076 19.7733 49.4809 20.12C49.4543 20.4667 49.4276 20.88 49.4009 21.36C49.3743 21.8133 49.3476 22.2533 49.3209 22.68C49.2943 23.1067 49.2809 23.4133 49.2809 23.6V23.64V23.68ZM56.2409 23.68H56.1609L52.2809 23.64H52.1609C52.1076 23.3733 52.0676 23.0533 52.0409 22.68C52.0409 22.28 52.0409 21.88 52.0409 21.48C52.0676 21.08 52.0809 20.7067 52.0809 20.36C52.1076 20.0133 52.1209 19.76 52.1209 19.6C52.3609 19.52 52.6809 19.4533 53.0809 19.4C53.5076 19.3467 53.9343 19.32 54.3609 19.32C54.8143 19.32 55.2276 19.3467 55.6009 19.4C56.0009 19.4267 56.2943 19.48 56.4809 19.56C56.4809 19.5867 56.4676 19.7733 56.4409 20.12C56.4143 20.4667 56.3876 20.88 56.3609 21.36C56.3343 21.8133 56.3076 22.2533 56.2809 22.68C56.2543 23.1067 56.2409 23.4133 56.2409 23.6V23.64V23.68ZM71.4959 25.88V25.6L77.3359 25.52C77.2826 28.0267 77.3093 30.56 77.4159 33.12C77.5226 35.68 77.5493 38.2533 77.4959 40.84C77.4426 41.9333 77.4026 43.12 77.3759 44.4C77.3493 45.6533 77.2026 46.8667 76.9359 48.04C76.6959 49.2133 76.2559 50.28 75.6159 51.24C75.0026 52.2 74.0826 52.9067 72.8559 53.36C71.7359 53.92 70.5093 54.2267 69.1759 54.28C67.8426 54.36 66.5759 54.2667 65.3759 54C64.2826 53.68 63.4026 53.0933 62.7359 52.24C62.0693 51.3867 61.5626 50.4133 61.2159 49.32C60.8693 48.2 60.6426 47.04 60.5359 45.84C60.4559 44.6133 60.4426 43.4933 60.4959 42.48C60.8426 42.4 61.2693 42.3467 61.7759 42.32C62.3093 42.2933 62.8559 42.28 63.4159 42.28C63.9759 42.28 64.5359 42.3067 65.0959 42.36C65.6826 42.4133 66.2159 42.48 66.6959 42.56V42.6V42.8C66.7226 43.2 66.7626 43.6667 66.8159 44.2C66.8959 44.7067 67.0293 45.2 67.2159 45.68C67.4026 46.1333 67.6426 46.52 67.9359 46.84C68.2293 47.16 68.6159 47.3333 69.0959 47.36C69.4959 47.44 69.8426 47.4133 70.1359 47.28C70.4293 47.1467 70.6693 46.9467 70.8559 46.68C71.0693 46.3867 71.2293 46.0667 71.3359 45.72C71.4426 45.3467 71.5093 44.96 71.5359 44.56C71.4826 41.5733 71.4293 38.5067 71.3759 35.36C71.3493 32.2133 71.3893 29.0533 71.4959 25.88ZM30.02 66.04C30.3667 66.6933 30.4467 67.52 30.26 68.52H30.24C29.7733 68.6 29.2733 68.6533 28.74 68.68C28.2067 68.6933 27.7067 68.6333 27.24 68.5C27.32 68.14 27.2467 67.84 27.02 67.6C26.7933 67.36 26.52 67.2067 26.2 67.14C25.88 67.0733 25.5667 67.1067 25.26 67.24C24.9667 67.3733 24.7933 67.6267 24.74 68C24.7133 68.0933 24.7 68.1867 24.7 68.28C24.7133 68.36 24.7267 68.4467 24.74 68.54C24.8467 68.86 25.02 69.0733 25.26 69.18C25.5 69.2867 25.76 69.36 26.04 69.4C26.7467 69.48 27.4 69.7067 28 70.08C28.6133 70.4533 29.1133 70.9267 29.5 71.5C29.74 71.8067 29.92 72.14 30.04 72.5C30.16 72.8467 30.2267 73.2067 30.24 73.58C30.2667 73.9533 30.24 74.3333 30.16 74.72C30.0933 75.0933 29.98 75.4533 29.82 75.8C29.66 76.2133 29.4467 76.5667 29.18 76.86C28.9133 77.1533 28.6067 77.3933 28.26 77.58C27.9267 77.7667 27.56 77.9067 27.16 78C26.7733 78.08 26.3733 78.1133 25.96 78.1C25.3733 78.0867 24.7867 77.9867 24.2 77.8C23.6267 77.6 23.1133 77.3267 22.66 76.98C22.2067 76.6333 21.8467 76.2133 21.58 75.72C21.3133 75.2133 21.2 74.64 21.24 74V73.94V73.88C21.7067 73.8133 22.22 73.8 22.78 73.84C23.34 73.8667 23.8467 73.8733 24.3 73.86C24.3267 74.2867 24.4933 74.6067 24.8 74.82C25.12 75.0333 25.4533 75.14 25.8 75.14C26.16 75.1267 26.4667 75.0067 26.72 74.78C26.9867 74.5533 27.08 74.2067 27 73.74C26.96 73.42 26.84 73.1667 26.64 72.98C26.44 72.78 26.2 72.62 25.92 72.5C25.6533 72.38 25.36 72.2933 25.04 72.24C24.72 72.1733 24.42 72.1133 24.14 72.06C23.8733 72.0067 23.6267 71.92 23.4 71.8C23.1733 71.68 22.9667 71.54 22.78 71.38C22.1667 70.7933 21.7667 70.1467 21.58 69.44C21.4067 68.7333 21.4 68.0467 21.56 67.38C21.72 66.7133 22.02 66.1067 22.46 65.56C22.9133 65.0133 23.46 64.6067 24.1 64.34C24.42 64.2067 24.7733 64.12 25.16 64.08C25.5467 64.0267 25.9333 64.0133 26.32 64.04C26.72 64.0533 27.1067 64.1067 27.48 64.2C27.8667 64.2933 28.22 64.4133 28.54 64.56C29.18 64.8933 29.6733 65.3867 30.02 66.04ZM37.387 69.14C37.067 69.7 36.787 70.26 36.547 70.82L39.967 77.92C39.5404 78.0133 39.0737 78.0467 38.567 78.02C38.0737 77.9933 37.6137 77.9733 37.187 77.96C36.907 77.64 36.647 77.26 36.407 76.82C36.167 76.3667 35.9337 75.9 35.707 75.42C35.4937 74.94 35.2804 74.4667 35.067 74C34.8537 73.5333 34.6404 73.1133 34.427 72.74C34.4137 73.1267 34.407 73.5467 34.407 74C34.4204 74.44 34.4337 74.8867 34.447 75.34C34.4604 75.7933 34.467 76.24 34.467 76.68C34.4804 77.12 34.487 77.5267 34.487 77.9C34.3004 77.9533 34.0804 77.9867 33.827 78C33.5737 78.0267 33.307 78.04 33.027 78.04C32.747 78.04 32.4737 78.0267 32.207 78C31.9537 77.9733 31.7404 77.94 31.567 77.9C31.4604 75.6067 31.4404 73.3067 31.507 71C31.587 68.68 31.6204 66.3533 31.607 64.02C32.047 64.0067 32.4937 64.0133 32.947 64.04C33.4137 64.0533 33.8604 64.06 34.287 64.06C34.3137 64.82 34.3204 65.62 34.307 66.46C34.2937 67.3 34.3004 68.1 34.327 68.86C34.327 68.8733 34.3337 68.8667 34.347 68.84C34.3737 68.8 34.4004 68.7667 34.427 68.74C34.707 68.38 34.9604 68.0067 35.187 67.62C35.4137 67.2333 35.627 66.84 35.827 66.44C36.0404 66.04 36.2537 65.64 36.467 65.24C36.6937 64.84 36.947 64.44 37.227 64.04C37.6537 64.0667 38.107 64.0667 38.587 64.04C39.067 64.0133 39.5204 64.0333 39.947 64.1C39.787 64.66 39.5604 65.22 39.267 65.78C38.987 66.34 38.6804 66.9 38.347 67.46C38.027 68.02 37.707 68.58 37.387 69.14ZM47.4161 64.94C47.8028 65.2867 48.0761 65.6933 48.2361 66.16C48.3294 66.36 48.3961 66.5667 48.4361 66.78C48.4894 66.98 48.5294 67.1867 48.5561 67.4C48.5828 67.7333 48.5961 68.0667 48.5961 68.4C48.6094 68.72 48.6094 69.0467 48.5961 69.38C48.5561 70.0867 48.5428 70.7733 48.5561 71.44C48.5694 72.1067 48.5494 72.7867 48.4961 73.48L48.4361 74.14C48.4094 74.6067 48.3361 75.08 48.2161 75.56C48.0961 76.0267 47.9161 76.4533 47.6761 76.84C47.4494 77.16 47.1494 77.42 46.7761 77.62C46.4161 77.8067 46.0294 77.9533 45.6161 78.06C45.2428 78.1667 44.8628 78.2333 44.4761 78.26C44.1028 78.2867 43.7228 78.2867 43.3361 78.26C43.0561 78.2333 42.7828 78.1933 42.5161 78.14C42.2628 78.1 42.0161 78.0267 41.7761 77.92C41.5494 77.8133 41.3428 77.68 41.1561 77.52C40.9694 77.3467 40.8161 77.1267 40.6961 76.86C40.5094 76.5267 40.3828 76.1733 40.3161 75.8C40.2628 75.4133 40.2294 75.0267 40.2161 74.64C40.1761 73.6 40.1294 72.56 40.0761 71.52C40.0361 70.4667 40.0494 69.4133 40.1161 68.36C40.1294 67.76 40.2028 67.16 40.3361 66.56C40.4828 65.9467 40.7628 65.4067 41.1761 64.94C41.3094 64.8067 41.4628 64.6867 41.6361 64.58C42.0761 64.3667 42.5494 64.2133 43.0561 64.12C43.5761 64.0133 44.0894 63.9733 44.5961 64C45.1161 64.0267 45.6161 64.12 46.0961 64.28C46.5894 64.4267 47.0294 64.6467 47.4161 64.94ZM46.0961 72V71.04L46.0561 69.68C46.0561 69.6667 46.0428 69.5333 46.0161 69.28C46.0028 69.0133 45.9894 68.7667 45.9761 68.54C45.9494 68.1667 45.8428 67.8267 45.6561 67.52C45.4828 67.2133 45.2428 66.9867 44.9361 66.84C44.6694 66.7333 44.3961 66.7133 44.1161 66.78C43.8361 66.8467 43.5894 66.96 43.3761 67.12C42.9094 67.48 42.5961 67.94 42.4361 68.5C42.3294 69.0067 42.2628 69.54 42.2361 70.1C42.2228 70.66 42.2294 71.22 42.2561 71.78C42.3228 72.2467 42.3694 72.7267 42.3961 73.22C42.4228 73.7 42.5028 74.16 42.6361 74.6C42.7694 74.8667 42.9628 75.0733 43.2161 75.22C43.4694 75.3667 43.7428 75.4533 44.0361 75.48C44.3294 75.4933 44.6228 75.4533 44.9161 75.36C45.2094 75.2533 45.4561 75.0867 45.6561 74.86C45.7761 74.7 45.8628 74.5733 45.9161 74.48C45.9694 74.3733 46.0028 74.26 46.0161 74.14C46.0294 74.02 46.0294 73.88 46.0161 73.72C46.0161 73.5467 46.0294 73.32 46.0561 73.04C46.0694 72.7733 46.0761 72.54 46.0761 72.34C46.0894 72.14 46.0961 72.0267 46.0961 72ZM58.2841 75.82C58.2841 75.9533 58.2907 76.0733 58.3041 76.18C58.3307 76.66 58.3441 77.0267 58.3441 77.28C58.3441 77.52 58.3241 77.7 58.2841 77.82C58.2574 77.9267 58.2041 77.9867 58.1241 78C58.0441 78 57.9307 78 57.7841 78C57.6374 77.9867 57.4441 77.9867 57.2041 78C56.9774 78.0133 56.5841 78.0267 56.0241 78.04C55.4774 78.0533 54.7174 78.06 53.7441 78.06C52.7841 78.06 51.4974 78.0467 49.8841 78.02V77.66C49.9241 76.66 49.9574 75.76 49.9841 74.96C50.0107 74.1467 50.0241 73.3933 50.0241 72.7C50.0374 71.9933 50.0441 71.3133 50.0441 70.66C50.0441 70.0067 50.0374 69.34 50.0241 68.66C50.0107 67.98 49.9974 67.26 49.9841 66.5C49.9707 65.7267 49.9574 64.8733 49.9441 63.94C50.0774 63.8867 50.2841 63.8467 50.5641 63.82C50.8441 63.78 51.1441 63.76 51.4641 63.76C51.7841 63.76 52.0974 63.78 52.4041 63.82C52.7107 63.86 52.9574 63.92 53.1441 64C53.1174 64.8667 53.1041 65.76 53.1041 66.68C53.1174 67.5867 53.1307 68.5 53.1441 69.42C53.1574 70.34 53.1641 71.26 53.1641 72.18C53.1774 73.0867 53.1774 73.9667 53.1641 74.82V74.84C53.2574 74.8133 53.4307 74.8067 53.6841 74.82C53.9507 74.82 54.2574 74.8267 54.6041 74.84C54.9507 74.8533 55.3174 74.8733 55.7041 74.9C56.1041 74.9133 56.4774 74.9267 56.8241 74.94C57.1841 74.9533 57.4974 74.9667 57.7641 74.98C58.0441 74.98 58.2374 74.9733 58.3441 74.96C58.3441 75.1067 58.3374 75.2533 58.3241 75.4C58.3107 75.5333 58.2974 75.6733 58.2841 75.82ZM65.0028 75.26C65.8561 75.3 66.7361 75.3067 67.6428 75.28V75.32C67.6695 75.7467 67.6761 76.1933 67.6628 76.66C67.6495 77.1133 67.5895 77.54 67.4828 77.94C66.1228 77.9267 64.7361 77.9467 63.3228 78C61.9228 78.04 60.5761 78.0067 59.2828 77.9C59.2828 76.74 59.2695 75.5933 59.2428 74.46C59.2161 73.3133 59.1961 72.1733 59.1828 71.04C59.1695 69.9067 59.1695 68.7733 59.1828 67.64C59.1961 66.5067 59.2361 65.3667 59.3028 64.22C59.8228 64.1933 60.3828 64.1733 60.9828 64.16C61.5961 64.1333 62.2095 64.1133 62.8228 64.1C63.4361 64.0867 64.0295 64.0733 64.6028 64.06C65.1761 64.0467 65.6828 64.04 66.1228 64.04C66.5628 64.04 66.9161 64.0467 67.1828 64.06C67.4495 64.0733 67.5828 64.0867 67.5828 64.1C67.6495 64.5667 67.6628 65.04 67.6228 65.52C67.5961 66 67.5828 66.4733 67.5828 66.94V66.96C67.1561 67.0533 66.7228 67.1133 66.2828 67.14C65.8561 67.1533 65.4228 67.16 64.9828 67.16C64.5428 67.1467 64.1028 67.14 63.6628 67.14C63.2228 67.14 62.7828 67.16 62.3428 67.2H62.2828L62.2628 67.22C62.2761 67.6067 62.2561 68.0067 62.2028 68.42C62.1628 68.82 62.1895 69.2 62.2828 69.56L62.3028 69.58C62.7028 69.6067 63.1095 69.62 63.5228 69.62C63.9361 69.62 64.3495 69.6267 64.7628 69.64V69.66C64.8295 70.1133 64.8495 70.5667 64.8228 71.02C64.7961 71.4733 64.7895 71.9467 64.8028 72.44C64.6028 72.4933 64.3761 72.5267 64.1228 72.54C63.8695 72.54 63.6228 72.54 63.3828 72.54C63.1561 72.54 62.9495 72.5467 62.7628 72.56C62.5761 72.5733 62.4495 72.6067 62.3828 72.66C62.3161 73.0467 62.2895 73.48 62.3028 73.96C62.3295 74.44 62.3561 74.84 62.3828 75.16L62.4028 75.18C63.2828 75.18 64.1495 75.2067 65.0028 75.26ZM76.9717 78.06C76.8784 78.0867 76.7184 78.1 76.4917 78.1C76.2251 78.1 75.9184 78.08 75.5717 78.04C75.2251 78.0133 74.9184 78 74.6517 78C74.2117 77.0133 73.7717 76.06 73.3317 75.14C72.9051 74.2067 72.5384 73.3133 72.2317 72.46L72.0317 71.86C71.9784 71.7133 71.9251 71.58 71.8717 71.46C71.8317 71.3267 71.7984 71.26 71.7717 71.26C71.7584 71.26 71.7384 71.42 71.7117 71.74C71.6984 72.06 71.6851 72.4667 71.6717 72.96C71.6584 73.4533 71.6451 74 71.6317 74.6C71.6317 75.2 71.6317 75.78 71.6317 76.34C71.6317 76.6467 71.6317 76.9467 71.6317 77.24C71.6317 77.52 71.6384 77.7733 71.6517 78C71.5051 78.04 71.3584 78.0667 71.2117 78.08C71.0651 78.0933 70.9184 78.1 70.7717 78.1C70.4517 78.1 70.1251 78.08 69.7917 78.04C69.4717 78 69.1584 77.98 68.8517 77.98V76.58C68.8517 75.3133 68.8384 74.1067 68.8117 72.96C68.7984 71.8133 68.7917 70.6133 68.7917 69.36C68.7917 68.44 68.8051 67.5333 68.8317 66.64C68.8584 65.7333 68.9051 64.8533 68.9717 64C69.1051 63.9733 69.2451 63.9533 69.3917 63.94C69.5517 63.9267 69.7117 63.92 69.8717 63.92C69.9517 63.92 70.0851 63.9267 70.2717 63.94C70.4584 63.94 70.6451 63.9533 70.8317 63.98C71.0184 63.9933 71.1784 64.0133 71.3117 64.04C71.4584 64.0667 71.5317 64.0933 71.5317 64.12C71.6251 64.36 71.7117 64.56 71.7917 64.72C71.8717 64.88 71.9451 65.0333 72.0117 65.18C72.0917 65.3267 72.1717 65.4933 72.2517 65.68C72.3451 65.8533 72.4517 66.08 72.5717 66.36C72.5984 66.4267 72.6584 66.5533 72.7517 66.74C72.8451 66.9267 72.9517 67.1467 73.0717 67.4C73.1917 67.64 73.3184 67.9 73.4517 68.18C73.5851 68.4467 73.7051 68.6933 73.8117 68.92C73.9317 69.1333 74.0317 69.32 74.1117 69.48C74.1917 69.6267 74.2384 69.7 74.2517 69.7C74.2917 69.6733 74.3251 69.54 74.3517 69.3C74.3784 69.06 74.3917 68.8267 74.3917 68.6C74.3917 68.0667 74.3784 67.5733 74.3517 67.12C74.3384 66.6533 74.3317 66.18 74.3317 65.7C74.3317 65.42 74.3317 65.14 74.3317 64.86C74.3451 64.5667 74.3584 64.2533 74.3717 63.92C74.8251 63.84 75.3051 63.8 75.8117 63.8C76.3051 63.8 76.7451 63.84 77.1317 63.92V70.36C77.1451 70.92 77.1517 71.4867 77.1517 72.06C77.1517 72.6333 77.1517 73.2067 77.1517 73.78C77.1517 74.1667 77.1451 74.54 77.1317 74.9C77.1317 75.26 77.1317 75.6267 77.1317 76C77.1317 76.2667 77.1317 76.5333 77.1317 76.8C77.1451 77.0667 77.1517 77.3333 77.1517 77.6V78C77.1251 78.0133 77.0651 78.0333 76.9717 78.06Z" fill="#FF6E00"/>
</svg>
